<mxfile host="app.diagrams.net" modified="2023-12-19T17:08:56.091Z" agent="Mozilla/5.0 (Windows NT 10.0; Win64; x64) AppleWebKit/537.36 (KHTML, like Gecko) Chrome/118.0.5993.771 YaBrowser/23.11.2.771 Yowser/2.5 Safari/537.36" etag="1QlEXjMJ-AHXLlbaiIZP" version="22.1.11" type="github" pages="2">
  <diagram name="START" id="IWsAiTm0D_rk45sIsOZR">
    <mxGraphModel dx="2849" dy="-70" grid="0" gridSize="10" guides="1" tooltips="1" connect="1" arrows="1" fold="1" page="0" pageScale="1" pageWidth="827" pageHeight="1169" math="0" shadow="0">
      <root>
        <mxCell id="0" />
        <mxCell id="1" parent="0" />
        <mxCell id="EnsPog2rjJ7ZiKO4mRKl-10" style="edgeStyle=orthogonalEdgeStyle;shape=connector;curved=1;rounded=0;orthogonalLoop=1;jettySize=auto;html=1;entryX=0;entryY=0.5;entryDx=0;entryDy=0;dashed=1;dashPattern=8 8;labelBackgroundColor=default;strokeColor=#3399FF;align=center;verticalAlign=middle;fontFamily=Helvetica;fontSize=11;fontColor=default;endArrow=classic;" edge="1" parent="1" source="cbDr0bFarPZ5LBcyghME-2" target="cbDr0bFarPZ5LBcyghME-3">
          <mxGeometry relative="1" as="geometry" />
        </mxCell>
        <mxCell id="EnsPog2rjJ7ZiKO4mRKl-11" style="edgeStyle=orthogonalEdgeStyle;shape=connector;curved=1;rounded=0;orthogonalLoop=1;jettySize=auto;html=1;entryX=0;entryY=0.5;entryDx=0;entryDy=0;dashed=1;dashPattern=8 8;labelBackgroundColor=default;strokeColor=#3399FF;align=center;verticalAlign=middle;fontFamily=Helvetica;fontSize=11;fontColor=default;endArrow=classic;" edge="1" parent="1" source="cbDr0bFarPZ5LBcyghME-2" target="cbDr0bFarPZ5LBcyghME-4">
          <mxGeometry relative="1" as="geometry" />
        </mxCell>
        <mxCell id="EnsPog2rjJ7ZiKO4mRKl-17" style="edgeStyle=orthogonalEdgeStyle;shape=connector;curved=1;rounded=0;orthogonalLoop=1;jettySize=auto;html=1;entryX=0;entryY=0.5;entryDx=0;entryDy=0;dashed=1;dashPattern=8 8;labelBackgroundColor=default;strokeColor=#3399FF;align=center;verticalAlign=middle;fontFamily=Helvetica;fontSize=11;fontColor=default;endArrow=classic;" edge="1" parent="1" source="cbDr0bFarPZ5LBcyghME-2" target="cbDr0bFarPZ5LBcyghME-5">
          <mxGeometry relative="1" as="geometry" />
        </mxCell>
        <mxCell id="EnsPog2rjJ7ZiKO4mRKl-18" style="edgeStyle=orthogonalEdgeStyle;shape=connector;curved=1;rounded=0;orthogonalLoop=1;jettySize=auto;html=1;entryX=0;entryY=0.5;entryDx=0;entryDy=0;dashed=1;dashPattern=8 8;labelBackgroundColor=default;strokeColor=#3399FF;align=center;verticalAlign=middle;fontFamily=Helvetica;fontSize=11;fontColor=default;endArrow=classic;" edge="1" parent="1" source="cbDr0bFarPZ5LBcyghME-2" target="cbDr0bFarPZ5LBcyghME-6">
          <mxGeometry relative="1" as="geometry" />
        </mxCell>
        <mxCell id="cbDr0bFarPZ5LBcyghME-2" value="ЭЛЕКТРИЧЕСТВО" style="rounded=1;whiteSpace=wrap;html=1;fillColor=#fff2cc;strokeColor=none;" vertex="1" parent="1">
          <mxGeometry x="-522" y="1660" width="120" height="36" as="geometry" />
        </mxCell>
        <mxCell id="EnsPog2rjJ7ZiKO4mRKl-2" style="edgeStyle=orthogonalEdgeStyle;shape=connector;curved=1;rounded=0;orthogonalLoop=1;jettySize=auto;html=1;entryX=0;entryY=0.5;entryDx=0;entryDy=0;dashed=1;dashPattern=8 8;labelBackgroundColor=default;strokeColor=#3399FF;align=center;verticalAlign=middle;fontFamily=Helvetica;fontSize=11;fontColor=default;endArrow=classic;" edge="1" parent="1" source="cbDr0bFarPZ5LBcyghME-3" target="cbDr0bFarPZ5LBcyghME-39">
          <mxGeometry relative="1" as="geometry" />
        </mxCell>
        <mxCell id="EnsPog2rjJ7ZiKO4mRKl-3" style="edgeStyle=orthogonalEdgeStyle;shape=connector;curved=1;rounded=0;orthogonalLoop=1;jettySize=auto;html=1;entryX=0;entryY=0.5;entryDx=0;entryDy=0;dashed=1;dashPattern=8 8;labelBackgroundColor=default;strokeColor=#3399FF;align=center;verticalAlign=middle;fontFamily=Helvetica;fontSize=11;fontColor=default;endArrow=classic;" edge="1" parent="1" source="cbDr0bFarPZ5LBcyghME-3" target="cbDr0bFarPZ5LBcyghME-41">
          <mxGeometry relative="1" as="geometry" />
        </mxCell>
        <mxCell id="EnsPog2rjJ7ZiKO4mRKl-4" style="edgeStyle=orthogonalEdgeStyle;shape=connector;curved=1;rounded=0;orthogonalLoop=1;jettySize=auto;html=1;entryX=0;entryY=0.5;entryDx=0;entryDy=0;dashed=1;dashPattern=8 8;labelBackgroundColor=default;strokeColor=#3399FF;align=center;verticalAlign=middle;fontFamily=Helvetica;fontSize=11;fontColor=default;endArrow=classic;" edge="1" parent="1" source="cbDr0bFarPZ5LBcyghME-3" target="cbDr0bFarPZ5LBcyghME-43">
          <mxGeometry relative="1" as="geometry" />
        </mxCell>
        <mxCell id="cbDr0bFarPZ5LBcyghME-3" value="Занятие 1" style="rounded=1;whiteSpace=wrap;html=1;fillColor=#dae8fc;strokeColor=none;" vertex="1" parent="1">
          <mxGeometry x="-196" y="1451" width="120" height="36" as="geometry" />
        </mxCell>
        <mxCell id="EnsPog2rjJ7ZiKO4mRKl-6" style="edgeStyle=orthogonalEdgeStyle;shape=connector;curved=1;rounded=0;orthogonalLoop=1;jettySize=auto;html=1;entryX=0;entryY=0.5;entryDx=0;entryDy=0;dashed=1;dashPattern=8 8;labelBackgroundColor=default;strokeColor=#3399FF;align=center;verticalAlign=middle;fontFamily=Helvetica;fontSize=11;fontColor=default;endArrow=classic;" edge="1" parent="1" source="cbDr0bFarPZ5LBcyghME-4" target="cbDr0bFarPZ5LBcyghME-45">
          <mxGeometry relative="1" as="geometry" />
        </mxCell>
        <mxCell id="EnsPog2rjJ7ZiKO4mRKl-7" style="edgeStyle=orthogonalEdgeStyle;shape=connector;curved=1;rounded=0;orthogonalLoop=1;jettySize=auto;html=1;entryX=0;entryY=0.5;entryDx=0;entryDy=0;dashed=1;dashPattern=8 8;labelBackgroundColor=default;strokeColor=#3399FF;align=center;verticalAlign=middle;fontFamily=Helvetica;fontSize=11;fontColor=default;endArrow=classic;" edge="1" parent="1" source="cbDr0bFarPZ5LBcyghME-4" target="cbDr0bFarPZ5LBcyghME-47">
          <mxGeometry relative="1" as="geometry" />
        </mxCell>
        <mxCell id="EnsPog2rjJ7ZiKO4mRKl-8" style="edgeStyle=orthogonalEdgeStyle;shape=connector;curved=1;rounded=0;orthogonalLoop=1;jettySize=auto;html=1;entryX=0;entryY=0.5;entryDx=0;entryDy=0;dashed=1;dashPattern=8 8;labelBackgroundColor=default;strokeColor=#3399FF;align=center;verticalAlign=middle;fontFamily=Helvetica;fontSize=11;fontColor=default;endArrow=classic;" edge="1" parent="1" source="cbDr0bFarPZ5LBcyghME-4" target="cbDr0bFarPZ5LBcyghME-48">
          <mxGeometry relative="1" as="geometry" />
        </mxCell>
        <mxCell id="EnsPog2rjJ7ZiKO4mRKl-9" style="edgeStyle=orthogonalEdgeStyle;shape=connector;curved=1;rounded=0;orthogonalLoop=1;jettySize=auto;html=1;entryX=0;entryY=0.5;entryDx=0;entryDy=0;dashed=1;dashPattern=8 8;labelBackgroundColor=default;strokeColor=#3399FF;align=center;verticalAlign=middle;fontFamily=Helvetica;fontSize=11;fontColor=default;endArrow=classic;" edge="1" parent="1" source="cbDr0bFarPZ5LBcyghME-4" target="cbDr0bFarPZ5LBcyghME-49">
          <mxGeometry relative="1" as="geometry" />
        </mxCell>
        <mxCell id="cbDr0bFarPZ5LBcyghME-4" value="Занятие 2" style="rounded=1;whiteSpace=wrap;html=1;fillColor=#dae8fc;strokeColor=none;" vertex="1" parent="1">
          <mxGeometry x="-196" y="1660" width="133" height="36" as="geometry" />
        </mxCell>
        <mxCell id="EnsPog2rjJ7ZiKO4mRKl-12" style="edgeStyle=orthogonalEdgeStyle;shape=connector;curved=1;rounded=0;orthogonalLoop=1;jettySize=auto;html=1;entryX=0;entryY=0.5;entryDx=0;entryDy=0;dashed=1;dashPattern=8 8;labelBackgroundColor=default;strokeColor=#3399FF;align=center;verticalAlign=middle;fontFamily=Helvetica;fontSize=11;fontColor=default;endArrow=classic;" edge="1" parent="1" source="cbDr0bFarPZ5LBcyghME-5" target="cbDr0bFarPZ5LBcyghME-55">
          <mxGeometry relative="1" as="geometry" />
        </mxCell>
        <mxCell id="EnsPog2rjJ7ZiKO4mRKl-13" style="edgeStyle=orthogonalEdgeStyle;shape=connector;curved=1;rounded=0;orthogonalLoop=1;jettySize=auto;html=1;entryX=0;entryY=0.5;entryDx=0;entryDy=0;dashed=1;dashPattern=8 8;labelBackgroundColor=default;strokeColor=#3399FF;align=center;verticalAlign=middle;fontFamily=Helvetica;fontSize=11;fontColor=default;endArrow=classic;" edge="1" parent="1" source="cbDr0bFarPZ5LBcyghME-5" target="cbDr0bFarPZ5LBcyghME-56">
          <mxGeometry relative="1" as="geometry" />
        </mxCell>
        <mxCell id="EnsPog2rjJ7ZiKO4mRKl-14" style="edgeStyle=orthogonalEdgeStyle;shape=connector;curved=1;rounded=0;orthogonalLoop=1;jettySize=auto;html=1;entryX=0;entryY=0.5;entryDx=0;entryDy=0;dashed=1;dashPattern=8 8;labelBackgroundColor=default;strokeColor=#3399FF;align=center;verticalAlign=middle;fontFamily=Helvetica;fontSize=11;fontColor=default;endArrow=classic;" edge="1" parent="1" source="cbDr0bFarPZ5LBcyghME-5" target="cbDr0bFarPZ5LBcyghME-57">
          <mxGeometry relative="1" as="geometry" />
        </mxCell>
        <mxCell id="EnsPog2rjJ7ZiKO4mRKl-15" style="edgeStyle=orthogonalEdgeStyle;shape=connector;curved=1;rounded=0;orthogonalLoop=1;jettySize=auto;html=1;entryX=0;entryY=0.5;entryDx=0;entryDy=0;dashed=1;dashPattern=8 8;labelBackgroundColor=default;strokeColor=#3399FF;align=center;verticalAlign=middle;fontFamily=Helvetica;fontSize=11;fontColor=default;endArrow=classic;" edge="1" parent="1" source="cbDr0bFarPZ5LBcyghME-5" target="cbDr0bFarPZ5LBcyghME-58">
          <mxGeometry relative="1" as="geometry" />
        </mxCell>
        <mxCell id="EnsPog2rjJ7ZiKO4mRKl-16" style="edgeStyle=orthogonalEdgeStyle;shape=connector;curved=1;rounded=0;orthogonalLoop=1;jettySize=auto;html=1;entryX=0;entryY=0.5;entryDx=0;entryDy=0;dashed=1;dashPattern=8 8;labelBackgroundColor=default;strokeColor=#3399FF;align=center;verticalAlign=middle;fontFamily=Helvetica;fontSize=11;fontColor=default;endArrow=classic;" edge="1" parent="1" source="cbDr0bFarPZ5LBcyghME-5" target="cbDr0bFarPZ5LBcyghME-59">
          <mxGeometry relative="1" as="geometry" />
        </mxCell>
        <mxCell id="cbDr0bFarPZ5LBcyghME-5" value="Занятие 3" style="rounded=1;whiteSpace=wrap;html=1;fillColor=#dae8fc;strokeColor=none;" vertex="1" parent="1">
          <mxGeometry x="-196" y="1946" width="133" height="40" as="geometry" />
        </mxCell>
        <mxCell id="EnsPog2rjJ7ZiKO4mRKl-20" style="edgeStyle=orthogonalEdgeStyle;shape=connector;curved=1;rounded=0;orthogonalLoop=1;jettySize=auto;html=1;entryX=0;entryY=0.5;entryDx=0;entryDy=0;dashed=1;dashPattern=8 8;labelBackgroundColor=default;strokeColor=#3399FF;align=center;verticalAlign=middle;fontFamily=Helvetica;fontSize=11;fontColor=default;endArrow=classic;" edge="1" parent="1" source="cbDr0bFarPZ5LBcyghME-6" target="EnsPog2rjJ7ZiKO4mRKl-19">
          <mxGeometry relative="1" as="geometry" />
        </mxCell>
        <mxCell id="EnsPog2rjJ7ZiKO4mRKl-23" style="edgeStyle=orthogonalEdgeStyle;shape=connector;curved=1;rounded=0;orthogonalLoop=1;jettySize=auto;html=1;entryX=0;entryY=0.5;entryDx=0;entryDy=0;dashed=1;dashPattern=8 8;labelBackgroundColor=default;strokeColor=#3399FF;align=center;verticalAlign=middle;fontFamily=Helvetica;fontSize=11;fontColor=default;endArrow=classic;" edge="1" parent="1" source="cbDr0bFarPZ5LBcyghME-6" target="EnsPog2rjJ7ZiKO4mRKl-21">
          <mxGeometry relative="1" as="geometry" />
        </mxCell>
        <mxCell id="EnsPog2rjJ7ZiKO4mRKl-24" style="edgeStyle=orthogonalEdgeStyle;shape=connector;curved=1;rounded=0;orthogonalLoop=1;jettySize=auto;html=1;entryX=0;entryY=0.5;entryDx=0;entryDy=0;dashed=1;dashPattern=8 8;labelBackgroundColor=default;strokeColor=#3399FF;align=center;verticalAlign=middle;fontFamily=Helvetica;fontSize=11;fontColor=default;endArrow=classic;" edge="1" parent="1" source="cbDr0bFarPZ5LBcyghME-6" target="EnsPog2rjJ7ZiKO4mRKl-22">
          <mxGeometry relative="1" as="geometry" />
        </mxCell>
        <mxCell id="cbDr0bFarPZ5LBcyghME-6" value="Занятие 4" style="rounded=1;whiteSpace=wrap;html=1;fillColor=#dae8fc;strokeColor=none;" vertex="1" parent="1">
          <mxGeometry x="-202.5" y="2204" width="133" height="36" as="geometry" />
        </mxCell>
        <mxCell id="cbDr0bFarPZ5LBcyghME-39" value="Статика:&lt;br&gt;ручка + волосы" style="rounded=1;whiteSpace=wrap;html=1;fillColor=#d5e8d4;strokeColor=none;" vertex="1" parent="1">
          <mxGeometry x="36" y="1405" width="120" height="36" as="geometry" />
        </mxCell>
        <mxCell id="cbDr0bFarPZ5LBcyghME-41" value="Батарейка из энергетика" style="rounded=1;whiteSpace=wrap;html=1;fillColor=#d5e8d4;strokeColor=none;" vertex="1" parent="1">
          <mxGeometry x="36" y="1451" width="120" height="36" as="geometry" />
        </mxCell>
        <mxCell id="cbDr0bFarPZ5LBcyghME-43" value="Батарейка или аккумулятор, что лучше?&amp;nbsp;" style="rounded=1;whiteSpace=wrap;html=1;fillColor=#d5e8d4;strokeColor=none;" vertex="1" parent="1">
          <mxGeometry x="36" y="1496" width="154" height="36" as="geometry" />
        </mxCell>
        <mxCell id="cbDr0bFarPZ5LBcyghME-45" value="цепь из проводов, батарейки 1,5 В и светодиода" style="rounded=1;whiteSpace=wrap;html=1;fillColor=#d5e8d4;strokeColor=none;flipV=0;" vertex="1" parent="1">
          <mxGeometry x="36" y="1587" width="176" height="36" as="geometry" />
        </mxCell>
        <mxCell id="cbDr0bFarPZ5LBcyghME-47" value="Показываем работу двигателя на 3 В" style="rounded=1;whiteSpace=wrap;html=1;fillColor=#d5e8d4;strokeColor=none;flipV=0;" vertex="1" parent="1">
          <mxGeometry x="36" y="1644" width="176" height="36" as="geometry" />
        </mxCell>
        <mxCell id="cbDr0bFarPZ5LBcyghME-48" value="Электрическая цепь на примере водяной модели" style="rounded=1;whiteSpace=wrap;html=1;fillColor=#d5e8d4;strokeColor=none;flipV=0;" vertex="1" parent="1">
          <mxGeometry x="36" y="1699" width="176" height="36" as="geometry" />
        </mxCell>
        <mxCell id="cbDr0bFarPZ5LBcyghME-49" value="Сборка электрической цепи на скорость" style="rounded=1;whiteSpace=wrap;html=1;fillColor=#d5e8d4;strokeColor=none;flipV=0;" vertex="1" parent="1">
          <mxGeometry x="36" y="1754" width="176" height="36" as="geometry" />
        </mxCell>
        <mxCell id="cbDr0bFarPZ5LBcyghME-55" value="Самодельная кнопка" style="rounded=1;whiteSpace=wrap;html=1;fillColor=#d5e8d4;strokeColor=none;" vertex="1" parent="1">
          <mxGeometry x="36" y="1845" width="176" height="36" as="geometry" />
        </mxCell>
        <mxCell id="cbDr0bFarPZ5LBcyghME-56" value="Схема с электрическим ключом" style="rounded=1;whiteSpace=wrap;html=1;fillColor=#d5e8d4;strokeColor=none;" vertex="1" parent="1">
          <mxGeometry x="36" y="1897" width="176" height="36" as="geometry" />
        </mxCell>
        <mxCell id="cbDr0bFarPZ5LBcyghME-57" value="Сенсорный датчик" style="rounded=1;whiteSpace=wrap;html=1;fillColor=#d5e8d4;strokeColor=none;" vertex="1" parent="1">
          <mxGeometry x="36" y="1950" width="176" height="36" as="geometry" />
        </mxCell>
        <mxCell id="cbDr0bFarPZ5LBcyghME-58" value="Фоторезистор" style="rounded=1;whiteSpace=wrap;html=1;fillColor=#d5e8d4;strokeColor=none;" vertex="1" parent="1">
          <mxGeometry x="36" y="2002" width="176" height="36" as="geometry" />
        </mxCell>
        <mxCell id="cbDr0bFarPZ5LBcyghME-59" value="Геркон" style="rounded=1;whiteSpace=wrap;html=1;fillColor=#d5e8d4;strokeColor=none;" vertex="1" parent="1">
          <mxGeometry x="36" y="2055" width="176" height="36" as="geometry" />
        </mxCell>
        <mxCell id="EnsPog2rjJ7ZiKO4mRKl-19" value="Люксметр" style="rounded=1;whiteSpace=wrap;html=1;fillColor=#d5e8d4;strokeColor=none;" vertex="1" parent="1">
          <mxGeometry x="36" y="2146" width="176" height="36" as="geometry" />
        </mxCell>
        <mxCell id="EnsPog2rjJ7ZiKO4mRKl-21" value="Грузоподъемник" style="rounded=1;whiteSpace=wrap;html=1;fillColor=#d5e8d4;strokeColor=none;" vertex="1" parent="1">
          <mxGeometry x="36" y="2204" width="176" height="36" as="geometry" />
        </mxCell>
        <mxCell id="EnsPog2rjJ7ZiKO4mRKl-22" value="Голограмма" style="rounded=1;whiteSpace=wrap;html=1;fillColor=#d5e8d4;strokeColor=none;" vertex="1" parent="1">
          <mxGeometry x="36" y="2257" width="176" height="36" as="geometry" />
        </mxCell>
      </root>
    </mxGraphModel>
  </diagram>
  <diagram id="h2PiRzPPCZHq2KCxnQVf" name="RAZVITIE">
    <mxGraphModel dx="1990" dy="118" grid="0" gridSize="10" guides="1" tooltips="1" connect="1" arrows="1" fold="1" page="0" pageScale="1" pageWidth="827" pageHeight="1169" math="0" shadow="0">
      <root>
        <mxCell id="0" />
        <mxCell id="1" parent="0" />
        <mxCell id="mB8kdgfgSmGijxehKF7A-1" value="РАЗВИТИЕ" style="rounded=1;whiteSpace=wrap;html=1;fillColor=#fff2cc;strokeColor=#d6b656;" vertex="1" parent="1">
          <mxGeometry x="1248" y="1547" width="120" height="36" as="geometry" />
        </mxCell>
        <mxCell id="mB8kdgfgSmGijxehKF7A-2" style="edgeStyle=orthogonalEdgeStyle;rounded=0;orthogonalLoop=1;jettySize=auto;html=1;entryX=0.5;entryY=0;entryDx=0;entryDy=0;curved=1;dashed=1;dashPattern=8 8;strokeColor=#3399FF;exitX=0.5;exitY=1;exitDx=0;exitDy=0;" edge="1" parent="1" source="mB8kdgfgSmGijxehKF7A-6" target="mB8kdgfgSmGijxehKF7A-7">
          <mxGeometry relative="1" as="geometry" />
        </mxCell>
        <mxCell id="mB8kdgfgSmGijxehKF7A-3" style="edgeStyle=orthogonalEdgeStyle;shape=connector;curved=1;rounded=0;orthogonalLoop=1;jettySize=auto;html=1;entryX=0.5;entryY=0;entryDx=0;entryDy=0;dashed=1;dashPattern=8 8;labelBackgroundColor=default;strokeColor=#3399FF;align=center;verticalAlign=middle;fontFamily=Helvetica;fontSize=11;fontColor=default;endArrow=classic;" edge="1" parent="1" source="mB8kdgfgSmGijxehKF7A-6" target="mB8kdgfgSmGijxehKF7A-8">
          <mxGeometry relative="1" as="geometry" />
        </mxCell>
        <mxCell id="mB8kdgfgSmGijxehKF7A-4" style="edgeStyle=orthogonalEdgeStyle;shape=connector;curved=1;rounded=0;orthogonalLoop=1;jettySize=auto;html=1;entryX=0.5;entryY=0;entryDx=0;entryDy=0;dashed=1;dashPattern=8 8;labelBackgroundColor=default;strokeColor=#3399FF;align=center;verticalAlign=middle;fontFamily=Helvetica;fontSize=11;fontColor=default;endArrow=classic;" edge="1" parent="1" source="mB8kdgfgSmGijxehKF7A-6" target="mB8kdgfgSmGijxehKF7A-9">
          <mxGeometry relative="1" as="geometry" />
        </mxCell>
        <mxCell id="mB8kdgfgSmGijxehKF7A-5" style="edgeStyle=orthogonalEdgeStyle;shape=connector;curved=1;rounded=0;orthogonalLoop=1;jettySize=auto;html=1;entryX=0.5;entryY=0;entryDx=0;entryDy=0;dashed=1;dashPattern=8 8;labelBackgroundColor=default;strokeColor=#3399FF;align=center;verticalAlign=middle;fontFamily=Helvetica;fontSize=11;fontColor=default;endArrow=classic;exitX=0.5;exitY=1;exitDx=0;exitDy=0;" edge="1" parent="1" source="mB8kdgfgSmGijxehKF7A-6" target="mB8kdgfgSmGijxehKF7A-10">
          <mxGeometry relative="1" as="geometry" />
        </mxCell>
        <mxCell id="mB8kdgfgSmGijxehKF7A-6" value="ЭЛЕКТРИЧЕСТВО" style="rounded=1;whiteSpace=wrap;html=1;fillColor=#dae8fc;strokeColor=#6c8ebf;" vertex="1" parent="1">
          <mxGeometry x="911" y="1620" width="120" height="36" as="geometry" />
        </mxCell>
        <mxCell id="mB8kdgfgSmGijxehKF7A-7" value="Занятие 1" style="rounded=1;whiteSpace=wrap;html=1;fillColor=#dae8fc;strokeColor=#6c8ebf;" vertex="1" parent="1">
          <mxGeometry x="664" y="1733" width="120" height="36" as="geometry" />
        </mxCell>
        <mxCell id="mB8kdgfgSmGijxehKF7A-8" value="Занятие 2" style="rounded=1;whiteSpace=wrap;html=1;fillColor=#dae8fc;strokeColor=#6c8ebf;" vertex="1" parent="1">
          <mxGeometry x="820" y="1733" width="133" height="36" as="geometry" />
        </mxCell>
        <mxCell id="mB8kdgfgSmGijxehKF7A-9" value="Занятие 3" style="rounded=1;whiteSpace=wrap;html=1;fillColor=#dae8fc;strokeColor=#6c8ebf;" vertex="1" parent="1">
          <mxGeometry x="983" y="1733" width="133" height="36" as="geometry" />
        </mxCell>
        <mxCell id="mB8kdgfgSmGijxehKF7A-10" value="Занятие 4" style="rounded=1;whiteSpace=wrap;html=1;fillColor=#dae8fc;strokeColor=#6c8ebf;" vertex="1" parent="1">
          <mxGeometry x="1145" y="1733" width="133" height="36" as="geometry" />
        </mxCell>
        <mxCell id="mB8kdgfgSmGijxehKF7A-11" style="edgeStyle=orthogonalEdgeStyle;rounded=0;orthogonalLoop=1;jettySize=auto;html=1;entryX=0.5;entryY=0;entryDx=0;entryDy=0;curved=1;dashed=1;dashPattern=8 8;strokeColor=#3399FF;exitX=0.5;exitY=1;exitDx=0;exitDy=0;" edge="1" parent="1" source="mB8kdgfgSmGijxehKF7A-15" target="mB8kdgfgSmGijxehKF7A-16">
          <mxGeometry relative="1" as="geometry" />
        </mxCell>
        <mxCell id="mB8kdgfgSmGijxehKF7A-12" style="edgeStyle=orthogonalEdgeStyle;shape=connector;curved=1;rounded=0;orthogonalLoop=1;jettySize=auto;html=1;entryX=0.5;entryY=0;entryDx=0;entryDy=0;dashed=1;dashPattern=8 8;labelBackgroundColor=default;strokeColor=#3399FF;align=center;verticalAlign=middle;fontFamily=Helvetica;fontSize=11;fontColor=default;endArrow=classic;" edge="1" parent="1" source="mB8kdgfgSmGijxehKF7A-15" target="mB8kdgfgSmGijxehKF7A-17">
          <mxGeometry relative="1" as="geometry" />
        </mxCell>
        <mxCell id="mB8kdgfgSmGijxehKF7A-13" style="edgeStyle=orthogonalEdgeStyle;shape=connector;curved=1;rounded=0;orthogonalLoop=1;jettySize=auto;html=1;entryX=0.5;entryY=0;entryDx=0;entryDy=0;dashed=1;dashPattern=8 8;labelBackgroundColor=default;strokeColor=#3399FF;align=center;verticalAlign=middle;fontFamily=Helvetica;fontSize=11;fontColor=default;endArrow=classic;" edge="1" parent="1" source="mB8kdgfgSmGijxehKF7A-15" target="mB8kdgfgSmGijxehKF7A-18">
          <mxGeometry relative="1" as="geometry" />
        </mxCell>
        <mxCell id="mB8kdgfgSmGijxehKF7A-14" style="edgeStyle=orthogonalEdgeStyle;shape=connector;curved=1;rounded=0;orthogonalLoop=1;jettySize=auto;html=1;entryX=0.5;entryY=0;entryDx=0;entryDy=0;dashed=1;dashPattern=8 8;labelBackgroundColor=default;strokeColor=#3399FF;align=center;verticalAlign=middle;fontFamily=Helvetica;fontSize=11;fontColor=default;endArrow=classic;exitX=0.5;exitY=1;exitDx=0;exitDy=0;" edge="1" parent="1" source="mB8kdgfgSmGijxehKF7A-15" target="mB8kdgfgSmGijxehKF7A-19">
          <mxGeometry relative="1" as="geometry" />
        </mxCell>
        <mxCell id="mB8kdgfgSmGijxehKF7A-15" value="ЭЛЕКТРИЧЕСТВО 2" style="rounded=1;whiteSpace=wrap;html=1;fillColor=#dae8fc;strokeColor=#6c8ebf;" vertex="1" parent="1">
          <mxGeometry x="1589" y="1620" width="132" height="36" as="geometry" />
        </mxCell>
        <mxCell id="mB8kdgfgSmGijxehKF7A-16" value="Занятие 1" style="rounded=1;whiteSpace=wrap;html=1;fillColor=#dae8fc;strokeColor=#6c8ebf;" vertex="1" parent="1">
          <mxGeometry x="1348" y="1733" width="120" height="36" as="geometry" />
        </mxCell>
        <mxCell id="mB8kdgfgSmGijxehKF7A-17" value="Занятие 2" style="rounded=1;whiteSpace=wrap;html=1;fillColor=#dae8fc;strokeColor=#6c8ebf;" vertex="1" parent="1">
          <mxGeometry x="1504" y="1733" width="133" height="36" as="geometry" />
        </mxCell>
        <mxCell id="mB8kdgfgSmGijxehKF7A-18" value="Занятие 3" style="rounded=1;whiteSpace=wrap;html=1;fillColor=#dae8fc;strokeColor=#6c8ebf;" vertex="1" parent="1">
          <mxGeometry x="1667" y="1733" width="133" height="36" as="geometry" />
        </mxCell>
        <mxCell id="mB8kdgfgSmGijxehKF7A-19" value="Занятие 4" style="rounded=1;whiteSpace=wrap;html=1;fillColor=#dae8fc;strokeColor=#6c8ebf;" vertex="1" parent="1">
          <mxGeometry x="1829" y="1733" width="133" height="36" as="geometry" />
        </mxCell>
      </root>
    </mxGraphModel>
  </diagram>
</mxfile>
